# xmcd CD database file
#
# Track frame offsets:
#	150
#	11402
#	23882
#	33975
#	46817
#	56885
#	69125
#	81272
#	89937
#	100210
#	112027
#	122760
#	138602
#	150935
#
# Disc length: 2142 seconds
#
# Revision: 4
# Processed by: cddbd v1.5.2PL0 Copyright (c) Steve Scherf et al.
# Submitted via: CDex 1.51
#
DISCID=b6085c0e
DTITLE=Original Artists - Golden Country Hits 5
DYEAR=1997
DGENRE=Country
TTITLE0=Just out of reach
TTITLE1=Coming apart
TTITLE2=On the road again
TTITLE3=Apartment no.9
TTITLE4=Today I started loving you again
TTITLE5=She thinks I still care
TTITLE6=Four walls
TTITLE7=We've come a long way baby
TTITLE8=A 11
TTITLE9=End of the world
TTITLE10=Oklahoma morning
TTITLE11=You're the one that I want
TTITLE12=Big, big rolling man
TTITLE13=Shake 'em up and roll 'em
EXTD=YEAR: 1997
EXTT0=
EXTT1=
EXTT2=
EXTT3=
EXTT4=
EXTT5=
EXTT6=
EXTT7=
EXTT8=
EXTT9=
EXTT10=
EXTT11=
EXTT12=
EXTT13=
PLAYORDER=
